<svg xmlns="http://www.w3.org/2000/svg" xmlns:xlink="http://www.w3.org/1999/xlink" viewBox="0 0 200.08 200.08"><defs><style>.cls-1{fill:url(#Nueva_muestra_de_degradado_9);}.cls-2{fill:url(#Nueva_muestra_de_degradado_9-2);}.cls-3{fill:none;}</style><linearGradient id="Nueva_muestra_de_degradado_9" x1="117.64" y1="26.83" x2="57.97" y2="96.98" gradientUnits="userSpaceOnUse"><stop offset="0.02" stop-color="#00b490"/><stop offset="0.98" stop-color="#262262"/></linearGradient><linearGradient id="Nueva_muestra_de_degradado_9-2" x1="144.71" y1="5.32" x2="28.81" y2="141.59" xlink:href="#Nueva_muestra_de_degradado_9"/></defs><title>3Recurso 9</title><g id="Capa_2" data-name="Capa 2"><g id="Capa_1-2" data-name="Capa 1"><path class="cls-1" d="M70.46,38.37a3.37,3.37,0,0,1,3-5h59.33a1.9,1.9,0,0,1,1.69,2.81l-7,13a3.92,3.92,0,0,1-3.48,2.06h-2.53a4,4,0,0,0-3.5,2c-12.08,22-26.43,48.12-31.63,57.57a2.27,2.27,0,0,1-4,0L74,95.66a2,2,0,0,1,0-1.87L85.58,71.55a1.52,1.52,0,0,1,.22-.34A2.18,2.18,0,0,0,86,70.9l9.1-16A2.45,2.45,0,0,0,93,51.21l-13.09,0a4,4,0,0,1-3.47-2Z"/><path class="cls-2" d="M194.67,36.28,136.49,146a1.92,1.92,0,0,1-1.72,1H117.12a1.9,1.9,0,0,1-1.69-2.79l42-79.24a2,2,0,0,1,2.53-.83l1,.47A1.92,1.92,0,0,0,163.74,63l0-9.51,0-8.43a1.94,1.94,0,0,0-3.18-1.45L154,49l-7.34,6.11a1.9,1.9,0,0,0,.42,3.18A2,2,0,0,1,148.22,60a1.65,1.65,0,0,1-.23.89L86.07,174.5a1.92,1.92,0,0,1-3.37,0L8.41,36.28a1.91,1.91,0,0,1,1.72-2.79h51a2,2,0,0,1,1.69,1l15.87,29.1a2.39,2.39,0,0,1,0,2.25L70.63,81.46a2.42,2.42,0,0,1-4.27,0L53.49,57.79a1.76,1.76,0,0,1-.09-1.59,9.2,9.2,0,0,0,.73-3.66,9.36,9.36,0,1,0-11,9.18,1.75,1.75,0,0,1,1.32.9L82.87,133.9a1.92,1.92,0,0,0,3.37,0l54-99.41a1.9,1.9,0,0,1,1.69-1H193A1.9,1.9,0,0,1,194.67,36.28Z"/><rect class="cls-3" width="200.08" height="200.08"/></g></g></svg>